<svg xmlns="http://www.w3.org/2000/svg" xmlns:xlink="http://www.w3.org/1999/xlink" width="265" height="99.633" viewBox="0 0 265 99.633">
  <defs>
    <clipPath id="clip-path">
      <path id="Контур_51446" data-name="Контур 51446" d="M0,0H265V87H0Z" transform="translate(18 116)" fill="#1c1c1c"/>
    </clipPath>
  </defs>
  <g id="Сгруппировать_51091" data-name="Сгруппировать 51091" transform="translate(-18 -122)">
    <path id="Контур_51443" data-name="Контур 51443" d="M0,0H265V99.633H0Z" transform="translate(18 122)" fill="#1c1c1c"/>
    <g id="Группа_масок_183" data-name="Группа масок 183" transform="translate(0 12)" clip-path="url(#clip-path)">
      <g id="Сгруппировать_51087" data-name="Сгруппировать 51087" transform="translate(599.077 -968.395)" opacity="0.144">
        <path id="Контур_51444" data-name="Контур 51444" d="M-302.516,1095.413a25.611,25.611,0,0,0-18.143-7.518h-29.669v54.688a5.515,5.515,0,0,0,5.515,5.515,5.515,5.515,0,0,0,5.515-5.515v-43.658h18.64a14.571,14.571,0,0,1,10.346,4.289,14.557,14.557,0,0,1,4.287,10.344,14.632,14.632,0,0,1-4.29,10.369,14.6,14.6,0,0,1-4.366,3,5.516,5.516,0,0,0-2.781,7.287A5.514,5.514,0,0,0-310.18,1137a25.715,25.715,0,0,0,7.667-5.278l.009-.011A25.683,25.683,0,0,0-295,1113.557,25.6,25.6,0,0,0-302.516,1095.413Z" transform="translate(8.579 0)" fill="#8f9192"/>
        <path id="Контур_51445" data-name="Контур 51445" d="M-306.871,1110.351l-7.761-11.474a3.366,3.366,0,0,0-5.577,0l-7.759,11.474a3.366,3.366,0,0,0,2.789,5.252h2.245v18a13.232,13.232,0,0,1-3.9,9.4,13.238,13.238,0,0,1-9.4,3.9,13.241,13.241,0,0,1-9.4-3.9,13.247,13.247,0,0,1-3.9-9.4v-22.544a5.516,5.516,0,0,0-5.515-5.515,5.517,5.517,0,0,0-5.515,5.515V1133.6a24.273,24.273,0,0,0,7.127,17.2,24.273,24.273,0,0,0,17.2,7.127,24.278,24.278,0,0,0,17.2-7.127,24.272,24.272,0,0,0,7.125-17.2v-18h2.245A3.367,3.367,0,0,0-306.871,1110.351Z" transform="translate(0 7.964)" fill="#8f9192"/>
      </g>
    </g>
  </g>
</svg>
